<svg width="85" height="16" viewBox="0 0 85 16" fill="none" xmlns="http://www.w3.org/2000/svg">
<path d="M5.13751 8.95349H2.93327V13.1699H5.23863C6.16212 13.1699 6.85305 12.9946 7.31143 12.6441C7.7698 12.2868 7.99899 11.7509 7.99899 11.0364C7.99899 10.3151 7.76306 9.78935 7.2912 9.45905C6.81935 9.12201 6.10145 8.95349 5.13751 8.95349ZM2.93327 3.51365V7.19414H5.02629C5.94304 7.19414 6.60701 7.04921 7.0182 6.75935C7.43613 6.46276 7.6451 5.98753 7.6451 5.33367C7.6451 4.67981 7.41928 4.21469 6.96764 3.93832C6.52275 3.65521 5.80485 3.51365 4.81395 3.51365H2.93327ZM0.759353 15V1.69363H4.70273C6.52949 1.69363 7.85069 1.96326 8.66633 2.50253C9.48871 3.03505 9.8999 3.87765 9.8999 5.03033C9.8999 5.81227 9.69767 6.45939 9.29323 6.97169C8.88878 7.48399 8.31581 7.80755 7.57432 7.94237V8.03337C8.49781 8.20863 9.182 8.55578 9.6269 9.07482C10.0718 9.58712 10.2942 10.2882 10.2942 11.178C10.2942 12.3778 9.87631 13.3148 9.04045 13.9889C8.20458 14.663 7.04516 15 5.56218 15H0.759353ZM16.9872 6.49646C15.2885 6.49646 14.4392 7.65251 14.4392 9.96461C14.4392 12.2767 15.2953 13.4328 17.0074 13.4328C18.7061 13.4328 19.5554 12.2767 19.5554 9.96461C19.5554 7.65251 18.6994 6.49646 16.9872 6.49646ZM12.2349 9.9545C12.2349 8.30974 12.6529 7.03236 13.4887 6.12235C14.3246 5.21234 15.4874 4.75733 16.9771 4.75733C18.4668 4.75733 19.6363 5.22919 20.4857 6.1729C21.335 7.10988 21.7597 8.38389 21.7597 9.99494C21.7597 11.606 21.3384 12.8733 20.4958 13.7968C19.6532 14.7203 18.4803 15.182 16.9771 15.182C15.5615 15.209 14.4122 14.7371 13.5292 13.7664C12.6461 12.789 12.2147 11.5184 12.2349 9.9545ZM28.3739 6.49646C26.6752 6.49646 25.8259 7.65251 25.8259 9.96461C25.8259 12.2767 26.682 13.4328 28.3941 13.4328C30.0928 13.4328 30.9422 12.2767 30.9422 9.96461C30.9422 7.65251 30.0861 6.49646 28.3739 6.49646ZM23.6216 9.9545C23.6216 8.30974 24.0396 7.03236 24.8754 6.12235C25.7113 5.21234 26.8741 4.75733 28.3638 4.75733C29.8535 4.75733 31.0231 5.22919 31.8724 6.1729C32.7217 7.10988 33.1464 8.38389 33.1464 9.99494C33.1464 11.606 32.7251 12.8733 31.8825 13.7968C31.0399 14.7203 29.867 15.182 28.3638 15.182C26.9482 15.209 25.7989 14.7371 24.9159 13.7664C24.0328 12.789 23.6014 11.5184 23.6216 9.9545ZM37.7283 15H35.6049V0.844287H37.7283V7.75025L37.6171 9.6815H37.6676L38.881 8.17492L41.9244 4.93933H44.3916L40.337 9.25682L44.6444 15H42.1267L38.9012 10.5915L37.7283 11.5521V15ZM51.9212 9.96461C52.6626 10.4769 53.0334 11.2117 53.0334 12.1689C53.0334 13.1261 52.6728 13.8675 51.9515 14.3933C51.237 14.9191 50.2124 15.182 48.8777 15.182C47.5497 15.182 46.4746 14.9798 45.6522 14.5753V12.725C46.8386 13.271 47.9407 13.544 48.9586 13.544C50.273 13.544 50.9303 13.1463 50.9303 12.3509C50.9235 11.9869 50.7685 11.697 50.4651 11.4813C50.1618 11.2588 49.5416 10.9555 48.6047 10.5713C47.4453 10.1196 46.6599 9.67139 46.2488 9.22649C45.8376 8.77486 45.632 8.19178 45.632 7.47725C45.632 6.61442 45.9791 5.94708 46.6734 5.47523C47.3745 4.99663 48.3148 4.75733 49.4945 4.75733C50.6741 4.75733 51.7998 4.99663 52.8716 5.47523L52.1739 7.08291C51.1021 6.63128 50.1888 6.40546 49.4338 6.40546C48.3081 6.40546 47.7452 6.72902 47.7452 7.37614C47.7452 7.6997 47.8901 7.96933 48.18 8.18503C48.4766 8.394 49.0833 8.67711 50 9.03438C50.9235 9.39164 51.5639 9.70172 51.9212 9.96461Z" fill="#009595"/>
<path d="M59.285 13.1699C62.4869 13.1699 64.0878 11.5453 64.0878 8.29626C64.0878 5.10785 62.5981 3.51365 59.6186 3.51365H57.738V13.1699H59.285ZM59.6692 1.69363C61.7858 1.69363 63.4339 2.2666 64.6136 3.41254C65.7932 4.55174 66.383 6.18975 66.383 8.32659C66.383 10.4567 65.773 12.1014 64.5529 13.2609C63.3328 14.4203 61.5768 15 59.285 15H55.564V1.69363H59.6692ZM73.6141 8.95349H71.4098V13.1699H73.7152C74.6387 13.1699 75.3296 12.9946 75.788 12.6441C76.2464 12.2868 76.4756 11.7509 76.4756 11.0364C76.4756 10.3151 76.2396 9.78935 75.7678 9.45905C75.2959 9.12201 74.578 8.95349 73.6141 8.95349ZM71.4098 3.51365V7.19414H73.5029C74.4196 7.19414 75.0836 7.04921 75.4948 6.75935C75.9127 6.46276 76.1217 5.98753 76.1217 5.33367C76.1217 4.67981 75.8958 4.21469 75.4442 3.93832C74.9993 3.65521 74.2814 3.51365 73.2905 3.51365H71.4098ZM69.2359 15V1.69363H73.1793C75.0061 1.69363 76.3273 1.96326 77.1429 2.50253C77.9653 3.03505 78.3765 3.87765 78.3765 5.03033C78.3765 5.81227 78.1742 6.45939 77.7698 6.97169C77.3653 7.48399 76.7924 7.80755 76.0509 7.94237V8.03337C76.9744 8.20863 77.6586 8.55578 78.1035 9.07482C78.5484 9.58712 78.7708 10.2882 78.7708 11.178C78.7708 12.3778 78.3529 13.3148 77.517 13.9889C76.6811 14.663 75.5217 15 74.0387 15H69.2359ZM84.028 13.6855C84.028 14.1709 83.8864 14.5517 83.6033 14.8281C83.3269 15.1045 82.936 15.2427 82.4304 15.2427C81.9316 15.2427 81.5406 15.1079 81.2575 14.8382C80.9811 14.5686 80.8429 14.1844 80.8429 13.6855C80.8429 13.1867 80.9777 12.8059 81.2474 12.543C81.5238 12.2801 81.9181 12.1486 82.4304 12.1486C82.9427 12.1486 83.337 12.2835 83.6134 12.5531C83.8898 12.8227 84.028 13.2002 84.028 13.6855Z" fill="#E5BA73"/>
</svg>
